<svg xmlns="http://www.w3.org/2000/svg" viewBox="0 0 200 200" width="288" height="288"><rect width="200" height="200" fill="#111317"/><rect x="32" y="48" width="136" height="104" rx="18" fill="#f5f6f8"/><rect x="46" y="58" width="13" height="10" rx="3" fill="#111317"/><rect x="46" y="132" width="13" height="10" rx="3" fill="#111317"/><rect x="70" y="58" width="13" height="10" rx="3" fill="#111317"/><rect x="70" y="132" width="13" height="10" rx="3" fill="#111317"/><rect x="94" y="58" width="13" height="10" rx="3" fill="#111317"/><rect x="94" y="132" width="13" height="10" rx="3" fill="#111317"/><rect x="118" y="58" width="13" height="10" rx="3" fill="#111317"/><rect x="118" y="132" width="13" height="10" rx="3" fill="#111317"/><rect x="142" y="58" width="13" height="10" rx="3" fill="#111317"/><rect x="142" y="132" width="13" height="10" rx="3" fill="#111317"/><path d="M100 72 Q104 96 128 100 Q104 104 100 128 Q96 104 72 100 Q96 96 100 72 Z" fill="#111317"/></svg>